<?xml version="1.0" standalone="no"?><!DOCTYPE svg PUBLIC "-//W3C//DTD SVG 1.1//EN" "http://www.w3.org/Graphics/SVG/1.1/DTD/svg11.dtd"><svg t="1658034979774" class="icon" viewBox="0 0 1024 1024" version="1.1" xmlns="http://www.w3.org/2000/svg" p-id="925" data-darkreader-inline-fill="" xmlns:xlink="http://www.w3.org/1999/xlink" width="200" height="200"><defs><style type="text/css"></style></defs><path d="M140.7 493.2c15.2 41.8 37.3 80.6 65.6 115.3 56.8 69.5 136.1 118.1 223.3 136.9l13.4 2.9-64.2 111.2c-3.6 6.2-3.6 13.7 0 19.9 3.6 6.2 10.1 10 17.3 10h246.4c7.2 0 13.7-3.7 17.3-10 3.6-6.2 3.6-13.7 0-19.9l-65.4-113.2 13-3.2c84.8-20.6 161.6-69.8 216.3-138.4 27.3-34.3 48.6-72.6 63.3-113.8 14.1-39.5 21.7-80.8 22.7-123H117.1c1.1 43 9 85.1 23.6 125.3z" fill="#FFE632" p-id="926" data-darkreader-inline-fill="" style="--darkreader-inline-fill:#837300;"></path><path d="M923 347.8l5.8-2.8c-16.3-34-35.4-61.1-56.7-80.5-17.5-15.9-36.5-26.7-56.5-32.1-22.4-6.1-41-4-51.7-1.6-12.5-28.6-31.1-47.6-55.2-56.5-33.1-12.2-67.8-1.8-85.8 5.6l-2.6-14.7c-4-22.4-23.4-38.7-46.1-38.7h-83.3c-20.8 0-38.9 13.4-44.9 33.3l-8.2 27.2c-36.8-29.4-68.7-39-95.2-28.5-37.9 15-51.7 66.8-56.3 92.5-40.8-20-77.5-23.1-109.3-9.3-59.7 26-78.7 102-79.5 105.2l3.3 0.8H97v10c0 48.8 8.4 96.7 24.9 142.2 16 44 39.1 84.7 68.9 121.1 56.7 69.4 134.9 119 221.2 140.7l-50.6 87.6c-7.2 12.5-7.2 27.4 0 39.9s20.1 20 34.6 20h246.4c14.4 0 27.4-7.5 34.6-20 7.2-12.5 7.2-27.4 0-39.9L624.9 759c40.2-11.2 78.4-28.3 113.7-51 38.3-24.7 72.2-55.3 100.7-91.1 28.7-36.1 51.1-76.3 66.5-119.5 15.9-44.7 24-91.7 24-139.7v-10H923z m-36.1 143c-14.7 41.2-35.9 79.4-63.3 113.8-54.7 68.6-131.5 117.8-216.3 138.4l-13 3.2 65.4 113.2c3.6 6.2 3.6 13.7 0 19.9-3.6 6.2-10.1 10-17.3 10H396c-7.2 0-13.7-3.7-17.3-10-3.6-6.2-3.6-13.7 0-19.9l64.2-111.2-13.4-2.9c-87.2-18.8-166.5-67.4-223.3-136.9-28.3-34.6-50.4-73.4-65.6-115.3-14.6-40.2-22.5-82.3-23.6-125.4h792.5c-0.9 42.3-8.6 83.6-22.6 123.1z m-702-230.7c29-12.6 64.1-7.5 104.3 15.2l13.5 7.6 1.4-15.4c1.9-20.8 13.9-77.7 45.8-90.3 21.7-8.6 50.7 3.2 86.4 34.9l11.7 10.4 17.1-56.8c3.4-11.4 13.8-19.1 25.7-19.1h83.3c13.1 0 24.2 9.3 26.4 22.2l7.3 41.4 12.3-6.9c0.4-0.2 43.6-24.1 81.6-10.1 20.8 7.6 36.5 25.6 46.8 53.3l3.6 9.7 9.5-3.9c0.2-0.1 20.8-7.9 48.6-0.4 37.7 10.2 71.7 43.9 98.3 97.5H117.4c1.6-5.5 6.1-19.9 14.7-35.8 9.6-18.2 26.7-42.1 52.8-53.5z" fill="#820404" p-id="927" data-darkreader-inline-fill="" style="--darkreader-inline-fill:#680303;"></path><path d="M117.4 349.4h791.2C882 295.7 848 262 810.3 251.8c-27.8-7.5-48.4 0.3-48.6 0.4l-9.5 3.9-3.6-9.7c-10.3-27.7-26.1-45.7-46.8-53.3-38-13.9-81.2 9.9-81.6 10.1l-12.3 6.9-7.3-41.4c-2.3-12.9-13.4-22.2-26.4-22.2h-83.3c-11.9 0-22.3 7.7-25.7 19.1l-17.1 56.8-11.7-10.4c-35.6-31.7-64.7-43.4-86.4-34.9-32 12.6-43.9 69.5-45.8 90.3l-1.4 15.4-13.5-7.6c-40.2-22.6-75.2-27.7-104.3-15.2-26.1 11.3-43.1 35.3-52.8 53.4-8.7 16.1-13.3 30.5-14.8 36z" fill="#ED6F00" p-id="928" data-darkreader-inline-fill="" style="--darkreader-inline-fill:#be5900;"></path></svg>